<svg width="67" height="68" viewBox="0 0 67 68" fill="none" xmlns="http://www.w3.org/2000/svg">
<g clip-path="url(#clip0_81_241)">
<g filter="url(#filter0_bdi_81_241)">
<g clip-path="url(#clip1_81_241)">
<rect x="2.5" y="3" width="62" height="62" rx="15.5" fill="url(#paint0_linear_81_241)" fill-opacity="0.04" shape-rendering="crispEdges"/>
<g style="mix-blend-mode:plus-lighter" opacity="0.5" filter="url(#filter1_f_81_241)">
<rect x="15.4167" y="15.9167" width="36.1667" height="36.1667" rx="7.75" fill="url(#paint1_radial_81_241)"/>
<rect x="15.4167" y="15.9167" width="36.1667" height="36.1667" rx="7.75" fill="url(#paint2_radial_81_241)"/>
<rect x="15.4167" y="15.9167" width="36.1667" height="36.1667" rx="7.75" fill="url(#paint3_radial_81_241)"/>
</g>
<rect x="15.4167" y="15.9167" width="36.1667" height="36.1667" rx="7.75" fill="url(#paint4_radial_81_241)"/>
<rect x="15.4167" y="15.9167" width="36.1667" height="36.1667" rx="7.75" fill="url(#paint5_radial_81_241)"/>
<rect x="15.4167" y="15.9167" width="36.1667" height="36.1667" rx="7.75" fill="url(#paint6_radial_81_241)"/>
<path d="M42.5417 26.8958C42.5417 27.9658 41.6743 28.8333 40.6042 28.8333C39.5342 28.8333 38.6667 27.9658 38.6667 26.8958C38.6667 25.8257 39.5342 24.9583 40.6042 24.9583C41.6743 24.9583 42.5417 25.8257 42.5417 26.8958Z" fill="white"/>
<path fill-rule="evenodd" clip-rule="evenodd" d="M33.5 40.4583C37.0669 40.4583 39.9584 37.5668 39.9584 33.9999C39.9584 30.4331 37.0669 27.5416 33.5 27.5416C29.9332 27.5416 27.0417 30.4331 27.0417 33.9999C27.0417 37.5668 29.9332 40.4583 33.5 40.4583ZM33.5 37.8749C35.6401 37.8749 37.375 36.14 37.375 33.9999C37.375 31.8598 35.6401 30.1249 33.5 30.1249C31.3599 30.1249 29.625 31.8598 29.625 33.9999C29.625 36.14 31.3599 37.8749 33.5 37.8749Z" fill="white"/>
<path fill-rule="evenodd" clip-rule="evenodd" d="M20.5834 33.4833C20.5834 29.1428 20.5834 26.9726 21.4281 25.3148C22.1711 23.8566 23.3567 22.671 24.8149 21.928C26.4728 21.0833 28.643 21.0833 32.9834 21.0833H34.0167C38.3571 21.0833 40.5273 21.0833 42.1851 21.928C43.6434 22.671 44.829 23.8566 45.572 25.3148C46.4167 26.9726 46.4167 29.1428 46.4167 33.4833V34.5166C46.4167 38.857 46.4167 41.0272 45.572 42.685C44.829 44.1433 43.6434 45.3289 42.1851 46.0719C40.5273 46.9166 38.3571 46.9166 34.0167 46.9166H32.9834C28.643 46.9166 26.4728 46.9166 24.8149 46.0719C23.3567 45.3289 22.1711 44.1433 21.4281 42.685C20.5834 41.0272 20.5834 38.857 20.5834 34.5166V33.4833ZM32.9834 23.6666H34.0167C36.2295 23.6666 37.7338 23.6686 38.8965 23.7636C40.0291 23.8561 40.6083 24.0239 41.0123 24.2297C41.9845 24.7251 42.7749 25.5155 43.2702 26.4876C43.4761 26.8917 43.6438 27.4709 43.7364 28.6034C43.8314 29.7662 43.8334 31.2704 43.8334 33.4833V34.5166C43.8334 36.7294 43.8314 38.2337 43.7364 39.3964C43.6438 40.529 43.4761 41.1082 43.2702 41.5122C42.7749 42.4844 41.9845 43.2748 41.0123 43.7701C40.6083 43.976 40.0291 44.1437 38.8965 44.2362C37.7338 44.3312 36.2295 44.3333 34.0167 44.3333H32.9834C30.7705 44.3333 29.2663 44.3312 28.1036 44.2362C26.971 44.1437 26.3918 43.976 25.9878 43.7701C25.0156 43.2748 24.2252 42.4844 23.7298 41.5122C23.524 41.1082 23.3563 40.529 23.2637 39.3964C23.1687 38.2337 23.1667 36.7294 23.1667 34.5166V33.4833C23.1667 31.2704 23.1687 29.7662 23.2637 28.6034C23.3563 27.4709 23.524 26.8917 23.7298 26.4876C24.2252 25.5155 25.0156 24.7251 25.9878 24.2297C26.3918 24.0239 26.971 23.8561 28.1036 23.7636C29.2663 23.6686 30.7705 23.6666 32.9834 23.6666Z" fill="white"/>
<g filter="url(#filter2_f_81_241)">
<ellipse cx="34.1458" cy="64.3541" rx="14.8542" ry="8.39583" fill="#D4467E"/>
</g>
</g>
<rect x="2.5" y="3" width="62" height="62" rx="15.5" stroke="url(#paint7_linear_81_241)" stroke-opacity="0.5" stroke-width="1.03333" shape-rendering="crispEdges"/>
</g>
</g>
<defs>
<filter id="filter0_bdi_81_241" x="-23.8501" y="-23.3499" width="119.867" height="114.7" filterUnits="userSpaceOnUse" color-interpolation-filters="sRGB">
<feFlood flood-opacity="0" result="BackgroundImageFix"/>
<feGaussianBlur in="BackgroundImageFix" stdDeviation="12.9167"/>
<feComposite in2="SourceAlpha" operator="in" result="effect1_backgroundBlur_81_241"/>
<feColorMatrix in="SourceAlpha" type="matrix" values="0 0 0 0 0 0 0 0 0 0 0 0 0 0 0 0 0 0 127 0" result="hardAlpha"/>
<feOffset dx="10.3333" dy="5.16667"/>
<feGaussianBlur stdDeviation="10.3333"/>
<feComposite in2="hardAlpha" operator="out"/>
<feColorMatrix type="matrix" values="0 0 0 0 0 0 0 0 0 0 0 0 0 0 0 0 0 0 0.08 0"/>
<feBlend mode="normal" in2="effect1_backgroundBlur_81_241" result="effect2_dropShadow_81_241"/>
<feBlend mode="normal" in="SourceGraphic" in2="effect2_dropShadow_81_241" result="shape"/>
<feColorMatrix in="SourceAlpha" type="matrix" values="0 0 0 0 0 0 0 0 0 0 0 0 0 0 0 0 0 0 127 0" result="hardAlpha"/>
<feOffset/>
<feGaussianBlur stdDeviation="5.16667"/>
<feComposite in2="hardAlpha" operator="arithmetic" k2="-1" k3="1"/>
<feColorMatrix type="matrix" values="0 0 0 0 0.744549 0 0 0 0 0.0509804 0 0 0 0 0.988235 0 0 0 0.32 0"/>
<feBlend mode="normal" in2="shape" result="effect3_innerShadow_81_241"/>
</filter>
<filter id="filter1_f_81_241" x="-2.66663" y="-2.16675" width="72.3334" height="72.3333" filterUnits="userSpaceOnUse" color-interpolation-filters="sRGB">
<feFlood flood-opacity="0" result="BackgroundImageFix"/>
<feBlend mode="normal" in="SourceGraphic" in2="BackgroundImageFix" result="shape"/>
<feGaussianBlur stdDeviation="7.75" result="effect1_foregroundBlur_81_241"/>
</filter>
<filter id="filter2_f_81_241" x="-3.95837" y="32.7083" width="76.2084" height="63.2917" filterUnits="userSpaceOnUse" color-interpolation-filters="sRGB">
<feFlood flood-opacity="0" result="BackgroundImageFix"/>
<feBlend mode="normal" in="SourceGraphic" in2="BackgroundImageFix" result="shape"/>
<feGaussianBlur stdDeviation="11.625" result="effect1_foregroundBlur_81_241"/>
</filter>
<linearGradient id="paint0_linear_81_241" x1="2.5" y1="3" x2="64.5" y2="65" gradientUnits="userSpaceOnUse">
<stop stop-color="#F8FBFF"/>
<stop offset="1" stop-color="white" stop-opacity="0"/>
</linearGradient>
<radialGradient id="paint1_radial_81_241" cx="0" cy="0" r="1" gradientUnits="userSpaceOnUse" gradientTransform="translate(28.3334 43.0418) rotate(-55.3758) scale(32.9628)">
<stop stop-color="#B13589"/>
<stop offset="0.79309" stop-color="#C62F94"/>
<stop offset="1" stop-color="#8A3AC8"/>
</radialGradient>
<radialGradient id="paint2_radial_81_241" cx="0" cy="0" r="1" gradientUnits="userSpaceOnUse" gradientTransform="translate(27.0417 53.3751) rotate(-65.1363) scale(29.1842)">
<stop stop-color="#E0E8B7"/>
<stop offset="0.444662" stop-color="#FB8A2E"/>
<stop offset="0.71474" stop-color="#E2425C"/>
<stop offset="1" stop-color="#E2425C" stop-opacity="0"/>
</radialGradient>
<radialGradient id="paint3_radial_81_241" cx="0" cy="0" r="1" gradientUnits="userSpaceOnUse" gradientTransform="translate(13.4793 17.2084) rotate(-8.1301) scale(50.234 10.7445)">
<stop offset="0.156701" stop-color="#406ADC"/>
<stop offset="0.467799" stop-color="#6A45BE"/>
<stop offset="1" stop-color="#6A45BE" stop-opacity="0"/>
</radialGradient>
<radialGradient id="paint4_radial_81_241" cx="0" cy="0" r="1" gradientUnits="userSpaceOnUse" gradientTransform="translate(28.3334 43.0418) rotate(-55.3758) scale(32.9628)">
<stop stop-color="#B13589"/>
<stop offset="0.79309" stop-color="#C62F94"/>
<stop offset="1" stop-color="#8A3AC8"/>
</radialGradient>
<radialGradient id="paint5_radial_81_241" cx="0" cy="0" r="1" gradientUnits="userSpaceOnUse" gradientTransform="translate(27.0417 53.3751) rotate(-65.1363) scale(29.1842)">
<stop stop-color="#E0E8B7"/>
<stop offset="0.444662" stop-color="#FB8A2E"/>
<stop offset="0.71474" stop-color="#E2425C"/>
<stop offset="1" stop-color="#E2425C" stop-opacity="0"/>
</radialGradient>
<radialGradient id="paint6_radial_81_241" cx="0" cy="0" r="1" gradientUnits="userSpaceOnUse" gradientTransform="translate(13.4793 17.2084) rotate(-8.1301) scale(50.234 10.7445)">
<stop offset="0.156701" stop-color="#406ADC"/>
<stop offset="0.467799" stop-color="#6A45BE"/>
<stop offset="1" stop-color="#6A45BE" stop-opacity="0"/>
</radialGradient>
<linearGradient id="paint7_linear_81_241" x1="3.79167" y1="1.70833" x2="62.5625" y2="65" gradientUnits="userSpaceOnUse">
<stop stop-color="#D8D8D8" stop-opacity="0.05"/>
<stop offset="1" stop-color="white" stop-opacity="0.4"/>
</linearGradient>
<clipPath id="clip0_81_241">
<rect width="67" height="68" fill="white"/>
</clipPath>
<clipPath id="clip1_81_241">
<rect x="2.5" y="3" width="62" height="62" rx="15.5" fill="white"/>
</clipPath>
</defs>
</svg>
