<svg width="56" height="56" viewBox="0 0 56 56" fill="none" xmlns="http://www.w3.org/2000/svg">
<g clip-path="url(#clip0_81_229)">
<g filter="url(#filter0_bdi_81_229)">
<g clip-path="url(#clip1_81_229)">
<rect x="4" y="4" width="48" height="48" rx="12" fill="url(#paint0_linear_81_229)" fill-opacity="0.04" shape-rendering="crispEdges"/>
<g style="mix-blend-mode:plus-lighter" opacity="0.5" filter="url(#filter1_f_81_229)">
<path fill-rule="evenodd" clip-rule="evenodd" d="M23.4758 16.5H15.1927L24.8022 29.1096L15 39.5H18.3291L26.2866 31.0609L32.717 39.5H41L30.8694 26.2044L40.0211 16.5H36.6922L29.3811 24.2531L23.4758 16.5ZM33.9383 37.0952L20.0831 18.9088H22.2545L36.1097 37.0952H33.9383Z" fill="#09FFFF"/>
</g>
<path fill-rule="evenodd" clip-rule="evenodd" d="M23.4758 16.5H15.1927L24.8022 29.1096L15 39.5H18.3291L26.2866 31.0609L32.717 39.5H41L30.8694 26.2044L40.0211 16.5H36.6922L29.3811 24.2531L23.4758 16.5ZM33.9383 37.0952L20.0831 18.9088H22.2545L36.1097 37.0952H33.9383Z" fill="white"/>
<g filter="url(#filter2_f_81_229)">
<ellipse cx="28.5" cy="51.5" rx="11.5" ry="6.5" fill="#11B0FF"/>
</g>
</g>
<rect x="4" y="4" width="48" height="48" rx="12" stroke="url(#paint1_linear_81_229)" stroke-opacity="0.5" stroke-width="0.8" shape-rendering="crispEdges"/>
</g>
<g style="mix-blend-mode:screen" filter="url(#filter3_f_81_229)">
<circle cx="17" cy="17" r="9" fill="white" fill-opacity="0.18"/>
</g>
</g>
<defs>
<filter id="filter0_bdi_81_229" x="-16.4" y="-16.3999" width="92.8" height="88.7998" filterUnits="userSpaceOnUse" color-interpolation-filters="sRGB">
<feFlood flood-opacity="0" result="BackgroundImageFix"/>
<feGaussianBlur in="BackgroundImageFix" stdDeviation="10"/>
<feComposite in2="SourceAlpha" operator="in" result="effect1_backgroundBlur_81_229"/>
<feColorMatrix in="SourceAlpha" type="matrix" values="0 0 0 0 0 0 0 0 0 0 0 0 0 0 0 0 0 0 127 0" result="hardAlpha"/>
<feOffset dx="8" dy="4"/>
<feGaussianBlur stdDeviation="8"/>
<feComposite in2="hardAlpha" operator="out"/>
<feColorMatrix type="matrix" values="0 0 0 0 0 0 0 0 0 0 0 0 0 0 0 0 0 0 0.08 0"/>
<feBlend mode="normal" in2="effect1_backgroundBlur_81_229" result="effect2_dropShadow_81_229"/>
<feBlend mode="normal" in="SourceGraphic" in2="effect2_dropShadow_81_229" result="shape"/>
<feColorMatrix in="SourceAlpha" type="matrix" values="0 0 0 0 0 0 0 0 0 0 0 0 0 0 0 0 0 0 127 0" result="hardAlpha"/>
<feOffset/>
<feGaussianBlur stdDeviation="4"/>
<feComposite in2="hardAlpha" operator="arithmetic" k2="-1" k3="1"/>
<feColorMatrix type="matrix" values="0 0 0 0 0.0509804 0 0 0 0 0.932 0 0 0 0 0.988235 0 0 0 0.32 0"/>
<feBlend mode="normal" in2="shape" result="effect3_innerShadow_81_229"/>
</filter>
<filter id="filter1_f_81_229" x="0" y="0" width="56" height="56" filterUnits="userSpaceOnUse" color-interpolation-filters="sRGB">
<feFlood flood-opacity="0" result="BackgroundImageFix"/>
<feBlend mode="normal" in="SourceGraphic" in2="BackgroundImageFix" result="shape"/>
<feGaussianBlur stdDeviation="6" result="effect1_foregroundBlur_81_229"/>
</filter>
<filter id="filter2_f_81_229" x="-1" y="27" width="59" height="49" filterUnits="userSpaceOnUse" color-interpolation-filters="sRGB">
<feFlood flood-opacity="0" result="BackgroundImageFix"/>
<feBlend mode="normal" in="SourceGraphic" in2="BackgroundImageFix" result="shape"/>
<feGaussianBlur stdDeviation="9" result="effect1_foregroundBlur_81_229"/>
</filter>
<filter id="filter3_f_81_229" x="-12" y="-12" width="58" height="58" filterUnits="userSpaceOnUse" color-interpolation-filters="sRGB">
<feFlood flood-opacity="0" result="BackgroundImageFix"/>
<feBlend mode="normal" in="SourceGraphic" in2="BackgroundImageFix" result="shape"/>
<feGaussianBlur stdDeviation="10" result="effect1_foregroundBlur_81_229"/>
</filter>
<linearGradient id="paint0_linear_81_229" x1="4" y1="4" x2="52" y2="52" gradientUnits="userSpaceOnUse">
<stop stop-color="#F8FBFF"/>
<stop offset="1" stop-color="white" stop-opacity="0"/>
</linearGradient>
<linearGradient id="paint1_linear_81_229" x1="5" y1="3" x2="50.5" y2="52" gradientUnits="userSpaceOnUse">
<stop stop-color="#D8D8D8" stop-opacity="0.05"/>
<stop offset="1" stop-color="white" stop-opacity="0.4"/>
</linearGradient>
<clipPath id="clip0_81_229">
<rect width="56" height="56" fill="white"/>
</clipPath>
<clipPath id="clip1_81_229">
<rect x="4" y="4" width="48" height="48" rx="12" fill="white"/>
</clipPath>
</defs>
</svg>
