<svg width="85" height="86" viewBox="0 0 85 86" fill="none" xmlns="http://www.w3.org/2000/svg">
<g clip-path="url(#clip0_81_219)">
<g filter="url(#filter0_bdi_81_219)">
<g clip-path="url(#clip1_81_219)">
<rect x="4.5" y="5" width="76" height="76" rx="19" fill="url(#paint0_linear_81_219)" fill-opacity="0.04" shape-rendering="crispEdges"/>
<g style="mix-blend-mode:plus-lighter" opacity="0.5" filter="url(#filter1_f_81_219)">
<circle cx="42.4999" cy="42.9999" r="22.1667" fill="url(#paint1_linear_81_219)"/>
<path d="M50.755 49.779L51.7397 43.5226H45.5799V39.4643C45.5799 37.7523 46.4388 36.0824 49.1977 36.0824H52V30.756C52 30.756 49.458 30.3333 47.0288 30.3333C41.9535 30.3333 38.6393 33.3304 38.6393 38.7541V43.5226H33V49.779H38.6393V64.9045C39.7715 65.0778 40.9297 65.1666 42.1096 65.1666C43.2895 65.1666 44.4478 65.0778 45.5799 64.9045V49.779H50.755Z" fill="white"/>
</g>
<circle cx="42.4999" cy="42.9999" r="22.1667" fill="url(#paint2_linear_81_219)"/>
<path d="M50.755 49.779L51.7397 43.5226H45.5799V39.4643C45.5799 37.7523 46.4388 36.0824 49.1977 36.0824H52V30.756C52 30.756 49.458 30.3333 47.0288 30.3333C41.9535 30.3333 38.6393 33.3304 38.6393 38.7541V43.5226H33V49.779H38.6393V64.9045C39.7715 65.0778 40.9297 65.1666 42.1096 65.1666C43.2895 65.1666 44.4478 65.0778 45.5799 64.9045V49.779H50.755Z" fill="white"/>
<g filter="url(#filter2_f_81_219)">
<ellipse cx="43.2917" cy="80.2084" rx="18.2083" ry="10.2917" fill="#0A77E8"/>
</g>
</g>
<rect x="4.5" y="5" width="76" height="76" rx="19" stroke="url(#paint3_linear_81_219)" stroke-opacity="0.5" stroke-width="1.26667" shape-rendering="crispEdges"/>
</g>
<g style="mix-blend-mode:screen" filter="url(#filter3_f_81_219)">
<circle cx="26.9166" cy="26.9167" r="14.25" fill="white" fill-opacity="0.18"/>
</g>
</g>
<defs>
<filter id="filter0_bdi_81_219" x="-27.8" y="-27.3" width="146.933" height="140.6" filterUnits="userSpaceOnUse" color-interpolation-filters="sRGB">
<feFlood flood-opacity="0" result="BackgroundImageFix"/>
<feGaussianBlur in="BackgroundImageFix" stdDeviation="15.8333"/>
<feComposite in2="SourceAlpha" operator="in" result="effect1_backgroundBlur_81_219"/>
<feColorMatrix in="SourceAlpha" type="matrix" values="0 0 0 0 0 0 0 0 0 0 0 0 0 0 0 0 0 0 127 0" result="hardAlpha"/>
<feOffset dx="12.6667" dy="6.33333"/>
<feGaussianBlur stdDeviation="12.6667"/>
<feComposite in2="hardAlpha" operator="out"/>
<feColorMatrix type="matrix" values="0 0 0 0 0 0 0 0 0 0 0 0 0 0 0 0 0 0 0.08 0"/>
<feBlend mode="normal" in2="effect1_backgroundBlur_81_219" result="effect2_dropShadow_81_219"/>
<feBlend mode="normal" in="SourceGraphic" in2="effect2_dropShadow_81_219" result="shape"/>
<feColorMatrix in="SourceAlpha" type="matrix" values="0 0 0 0 0 0 0 0 0 0 0 0 0 0 0 0 0 0 127 0" result="hardAlpha"/>
<feOffset/>
<feGaussianBlur stdDeviation="6.33333"/>
<feComposite in2="hardAlpha" operator="arithmetic" k2="-1" k3="1"/>
<feColorMatrix type="matrix" values="0 0 0 0 0.158333 0 0 0 0 0.495 0 0 0 0 1 0 0 0 0.32 0"/>
<feBlend mode="normal" in2="shape" result="effect3_innerShadow_81_219"/>
</filter>
<filter id="filter1_f_81_219" x="-1.83337" y="-1.33325" width="88.6666" height="88.6667" filterUnits="userSpaceOnUse" color-interpolation-filters="sRGB">
<feFlood flood-opacity="0" result="BackgroundImageFix"/>
<feBlend mode="normal" in="SourceGraphic" in2="BackgroundImageFix" result="shape"/>
<feGaussianBlur stdDeviation="9.5" result="effect1_foregroundBlur_81_219"/>
</filter>
<filter id="filter2_f_81_219" x="-3.41663" y="41.4167" width="93.4166" height="77.5833" filterUnits="userSpaceOnUse" color-interpolation-filters="sRGB">
<feFlood flood-opacity="0" result="BackgroundImageFix"/>
<feBlend mode="normal" in="SourceGraphic" in2="BackgroundImageFix" result="shape"/>
<feGaussianBlur stdDeviation="14.25" result="effect1_foregroundBlur_81_219"/>
</filter>
<filter id="filter3_f_81_219" x="-19" y="-18.9999" width="91.8333" height="91.8333" filterUnits="userSpaceOnUse" color-interpolation-filters="sRGB">
<feFlood flood-opacity="0" result="BackgroundImageFix"/>
<feBlend mode="normal" in="SourceGraphic" in2="BackgroundImageFix" result="shape"/>
<feGaussianBlur stdDeviation="15.8333" result="effect1_foregroundBlur_81_219"/>
</filter>
<linearGradient id="paint0_linear_81_219" x1="4.5" y1="5" x2="80.5" y2="81" gradientUnits="userSpaceOnUse">
<stop stop-color="#F8FBFF"/>
<stop offset="1" stop-color="white" stop-opacity="0"/>
</linearGradient>
<linearGradient id="paint1_linear_81_219" x1="42.4999" y1="20.8333" x2="42.4999" y2="65.0351" gradientUnits="userSpaceOnUse">
<stop stop-color="#18ACFE"/>
<stop offset="1" stop-color="#0163E0"/>
</linearGradient>
<linearGradient id="paint2_linear_81_219" x1="42.4999" y1="20.8333" x2="42.4999" y2="65.0351" gradientUnits="userSpaceOnUse">
<stop stop-color="#18ACFE"/>
<stop offset="1" stop-color="#0163E0"/>
</linearGradient>
<linearGradient id="paint3_linear_81_219" x1="6.08333" y1="3.41667" x2="78.125" y2="81" gradientUnits="userSpaceOnUse">
<stop stop-color="#D8D8D8" stop-opacity="0.05"/>
<stop offset="1" stop-color="white" stop-opacity="0.4"/>
</linearGradient>
<clipPath id="clip0_81_219">
<rect width="85" height="86" fill="white"/>
</clipPath>
<clipPath id="clip1_81_219">
<rect x="4.5" y="5" width="76" height="76" rx="19" fill="white"/>
</clipPath>
</defs>
</svg>
