<svg width="124" height="144" viewBox="0 0 124 144" fill="none" xmlns="http://www.w3.org/2000/svg">
<path opacity="0.28" d="M97.7933 18.0376C97.4 24.8715 96.4167 31.5519 94.8433 37.9251L102.71 47.1394C105.398 37.9251 107.102 28.1733 107.692 18.0376H97.7933ZM33.1556 110.334C27.5833 112.177 21.88 113.329 16.1111 113.789V125.23C24.7644 124.539 33.09 122.543 41.0222 119.472L33.1556 110.334ZM91.5 2.68042H114.444C118.05 2.68042 121 6.13578 121 10.359C121 82.4608 71.1122 140.895 9.55556 140.895C5.95 140.895 3 137.439 3 133.216V106.418C3 102.195 5.95 98.7394 9.55556 98.7394C17.6844 98.7394 25.6167 97.2037 32.9589 94.3626C33.6144 94.0555 34.3356 93.9787 34.9911 93.9787C36.6956 93.9787 38.3344 94.7465 39.6456 96.2055L54.0678 113.098C72.62 101.964 87.8289 84.2269 97.2689 62.4965L82.8467 45.6037C81.0111 43.4537 80.4867 40.459 81.2078 37.7715C83.6333 29.1715 84.9444 19.9572 84.9444 10.359C84.9444 6.13578 87.8944 2.68042 91.5 2.68042Z" stroke="url(#paint0_linear_81_215)" stroke-width="5" stroke-linecap="round"/>
<defs>
<linearGradient id="paint0_linear_81_215" x1="60.8566" y1="25.7161" x2="60.8566" y2="134.143" gradientUnits="userSpaceOnUse">
<stop stop-color="white"/>
<stop offset="1" stop-color="#B8B8B8" stop-opacity="0"/>
</linearGradient>
</defs>
</svg>
