<svg width="105" height="106" viewBox="0 0 105 106" fill="none" xmlns="http://www.w3.org/2000/svg">
<g filter="url(#filter0_bdi_81_241)">
<g clip-path="url(#clip0_81_241)">
<rect x="11" y="17" width="62" height="62" rx="15.5" fill="url(#paint0_linear_81_241)" fill-opacity="0.04" shape-rendering="crispEdges"/>
<g style="mix-blend-mode:plus-lighter" opacity="0.5" filter="url(#filter1_f_81_241)">
<rect x="23.9167" y="29.9167" width="36.1667" height="36.1667" rx="7.75" fill="url(#paint1_radial_81_241)"/>
<rect x="23.9167" y="29.9167" width="36.1667" height="36.1667" rx="7.75" fill="url(#paint2_radial_81_241)"/>
<rect x="23.9167" y="29.9167" width="36.1667" height="36.1667" rx="7.75" fill="url(#paint3_radial_81_241)"/>
</g>
<rect x="23.9167" y="29.9167" width="36.1667" height="36.1667" rx="7.75" fill="url(#paint4_radial_81_241)"/>
<rect x="23.9167" y="29.9167" width="36.1667" height="36.1667" rx="7.75" fill="url(#paint5_radial_81_241)"/>
<rect x="23.9167" y="29.9167" width="36.1667" height="36.1667" rx="7.75" fill="url(#paint6_radial_81_241)"/>
<path d="M51.0417 40.8958C51.0417 41.9658 50.1743 42.8333 49.1042 42.8333C48.0342 42.8333 47.1667 41.9658 47.1667 40.8958C47.1667 39.8257 48.0342 38.9583 49.1042 38.9583C50.1743 38.9583 51.0417 39.8257 51.0417 40.8958Z" fill="white"/>
<path fill-rule="evenodd" clip-rule="evenodd" d="M42 54.4583C45.5669 54.4583 48.4584 51.5668 48.4584 47.9999C48.4584 44.4331 45.5669 41.5416 42 41.5416C38.4332 41.5416 35.5417 44.4331 35.5417 47.9999C35.5417 51.5668 38.4332 54.4583 42 54.4583ZM42 51.8749C44.1401 51.8749 45.875 50.14 45.875 47.9999C45.875 45.8598 44.1401 44.1249 42 44.1249C39.8599 44.1249 38.125 45.8598 38.125 47.9999C38.125 50.14 39.8599 51.8749 42 51.8749Z" fill="white"/>
<path fill-rule="evenodd" clip-rule="evenodd" d="M29.0834 47.4833C29.0834 43.1428 29.0834 40.9726 29.9281 39.3148C30.6711 37.8566 31.8567 36.671 33.3149 35.928C34.9728 35.0833 37.143 35.0833 41.4834 35.0833H42.5167C46.8571 35.0833 49.0273 35.0833 50.6851 35.928C52.1434 36.671 53.329 37.8566 54.072 39.3148C54.9167 40.9726 54.9167 43.1428 54.9167 47.4833V48.5166C54.9167 52.857 54.9167 55.0272 54.072 56.685C53.329 58.1433 52.1434 59.3289 50.6851 60.0719C49.0273 60.9166 46.8571 60.9166 42.5167 60.9166H41.4834C37.143 60.9166 34.9728 60.9166 33.3149 60.0719C31.8567 59.3289 30.6711 58.1433 29.9281 56.685C29.0834 55.0272 29.0834 52.857 29.0834 48.5166V47.4833ZM41.4834 37.6666H42.5167C44.7295 37.6666 46.2338 37.6686 47.3965 37.7636C48.5291 37.8561 49.1083 38.0239 49.5123 38.2297C50.4845 38.7251 51.2749 39.5155 51.7702 40.4876C51.9761 40.8917 52.1438 41.4709 52.2364 42.6034C52.3314 43.7662 52.3334 45.2704 52.3334 47.4833V48.5166C52.3334 50.7294 52.3314 52.2337 52.2364 53.3964C52.1438 54.529 51.9761 55.1082 51.7702 55.5122C51.2749 56.4844 50.4845 57.2748 49.5123 57.7701C49.1083 57.976 48.5291 58.1437 47.3965 58.2362C46.2338 58.3312 44.7295 58.3333 42.5167 58.3333H41.4834C39.2705 58.3333 37.7663 58.3312 36.6036 58.2362C35.471 58.1437 34.8918 57.976 34.4878 57.7701C33.5156 57.2748 32.7252 56.4844 32.2298 55.5122C32.024 55.1082 31.8563 54.529 31.7637 53.3964C31.6687 52.2337 31.6667 50.7294 31.6667 48.5166V47.4833C31.6667 45.2704 31.6687 43.7662 31.7637 42.6034C31.8563 41.4709 32.024 40.8917 32.2298 40.4876C32.7252 39.5155 33.5156 38.7251 34.4878 38.2297C34.8918 38.0239 35.471 37.8561 36.6036 37.7636C37.7663 37.6686 39.2705 37.6666 41.4834 37.6666Z" fill="white"/>
<g filter="url(#filter2_f_81_241)">
<ellipse cx="42.6458" cy="78.3541" rx="14.8542" ry="8.39583" fill="#D4467E"/>
</g>
</g>
<rect x="11" y="17" width="62" height="62" rx="15.5" stroke="url(#paint7_linear_81_241)" stroke-opacity="0.5" stroke-width="1.03333" shape-rendering="crispEdges"/>
</g>
<defs>
<filter id="filter0_bdi_81_241" x="-15.3501" y="-9.34993" width="119.867" height="114.7" filterUnits="userSpaceOnUse" color-interpolation-filters="sRGB">
<feFlood flood-opacity="0" result="BackgroundImageFix"/>
<feGaussianBlur in="BackgroundImageFix" stdDeviation="12.9167"/>
<feComposite in2="SourceAlpha" operator="in" result="effect1_backgroundBlur_81_241"/>
<feColorMatrix in="SourceAlpha" type="matrix" values="0 0 0 0 0 0 0 0 0 0 0 0 0 0 0 0 0 0 127 0" result="hardAlpha"/>
<feOffset dx="10.3333" dy="5.16667"/>
<feGaussianBlur stdDeviation="10.3333"/>
<feComposite in2="hardAlpha" operator="out"/>
<feColorMatrix type="matrix" values="0 0 0 0 0 0 0 0 0 0 0 0 0 0 0 0 0 0 0.08 0"/>
<feBlend mode="normal" in2="effect1_backgroundBlur_81_241" result="effect2_dropShadow_81_241"/>
<feBlend mode="normal" in="SourceGraphic" in2="effect2_dropShadow_81_241" result="shape"/>
<feColorMatrix in="SourceAlpha" type="matrix" values="0 0 0 0 0 0 0 0 0 0 0 0 0 0 0 0 0 0 127 0" result="hardAlpha"/>
<feOffset/>
<feGaussianBlur stdDeviation="5.16667"/>
<feComposite in2="hardAlpha" operator="arithmetic" k2="-1" k3="1"/>
<feColorMatrix type="matrix" values="0 0 0 0 0.744549 0 0 0 0 0.0509804 0 0 0 0 0.988235 0 0 0 0.32 0"/>
<feBlend mode="normal" in2="shape" result="effect3_innerShadow_81_241"/>
</filter>
<filter id="filter1_f_81_241" x="5.83337" y="11.8333" width="72.3334" height="72.3333" filterUnits="userSpaceOnUse" color-interpolation-filters="sRGB">
<feFlood flood-opacity="0" result="BackgroundImageFix"/>
<feBlend mode="normal" in="SourceGraphic" in2="BackgroundImageFix" result="shape"/>
<feGaussianBlur stdDeviation="7.75" result="effect1_foregroundBlur_81_241"/>
</filter>
<filter id="filter2_f_81_241" x="4.54163" y="46.7083" width="76.2084" height="63.2917" filterUnits="userSpaceOnUse" color-interpolation-filters="sRGB">
<feFlood flood-opacity="0" result="BackgroundImageFix"/>
<feBlend mode="normal" in="SourceGraphic" in2="BackgroundImageFix" result="shape"/>
<feGaussianBlur stdDeviation="11.625" result="effect1_foregroundBlur_81_241"/>
</filter>
<linearGradient id="paint0_linear_81_241" x1="11" y1="17" x2="73" y2="79" gradientUnits="userSpaceOnUse">
<stop stop-color="#F8FBFF"/>
<stop offset="1" stop-color="white" stop-opacity="0"/>
</linearGradient>
<radialGradient id="paint1_radial_81_241" cx="0" cy="0" r="1" gradientUnits="userSpaceOnUse" gradientTransform="translate(36.8334 57.0418) rotate(-55.3758) scale(32.9628)">
<stop stop-color="#B13589"/>
<stop offset="0.79309" stop-color="#C62F94"/>
<stop offset="1" stop-color="#8A3AC8"/>
</radialGradient>
<radialGradient id="paint2_radial_81_241" cx="0" cy="0" r="1" gradientUnits="userSpaceOnUse" gradientTransform="translate(35.5417 67.3751) rotate(-65.1363) scale(29.1842)">
<stop stop-color="#E0E8B7"/>
<stop offset="0.444662" stop-color="#FB8A2E"/>
<stop offset="0.71474" stop-color="#E2425C"/>
<stop offset="1" stop-color="#E2425C" stop-opacity="0"/>
</radialGradient>
<radialGradient id="paint3_radial_81_241" cx="0" cy="0" r="1" gradientUnits="userSpaceOnUse" gradientTransform="translate(21.9793 31.2084) rotate(-8.1301) scale(50.234 10.7445)">
<stop offset="0.156701" stop-color="#406ADC"/>
<stop offset="0.467799" stop-color="#6A45BE"/>
<stop offset="1" stop-color="#6A45BE" stop-opacity="0"/>
</radialGradient>
<radialGradient id="paint4_radial_81_241" cx="0" cy="0" r="1" gradientUnits="userSpaceOnUse" gradientTransform="translate(36.8334 57.0418) rotate(-55.3758) scale(32.9628)">
<stop stop-color="#B13589"/>
<stop offset="0.79309" stop-color="#C62F94"/>
<stop offset="1" stop-color="#8A3AC8"/>
</radialGradient>
<radialGradient id="paint5_radial_81_241" cx="0" cy="0" r="1" gradientUnits="userSpaceOnUse" gradientTransform="translate(35.5417 67.3751) rotate(-65.1363) scale(29.1842)">
<stop stop-color="#E0E8B7"/>
<stop offset="0.444662" stop-color="#FB8A2E"/>
<stop offset="0.71474" stop-color="#E2425C"/>
<stop offset="1" stop-color="#E2425C" stop-opacity="0"/>
</radialGradient>
<radialGradient id="paint6_radial_81_241" cx="0" cy="0" r="1" gradientUnits="userSpaceOnUse" gradientTransform="translate(21.9793 31.2084) rotate(-8.1301) scale(50.234 10.7445)">
<stop offset="0.156701" stop-color="#406ADC"/>
<stop offset="0.467799" stop-color="#6A45BE"/>
<stop offset="1" stop-color="#6A45BE" stop-opacity="0"/>
</radialGradient>
<linearGradient id="paint7_linear_81_241" x1="12.2917" y1="15.7083" x2="71.0625" y2="79" gradientUnits="userSpaceOnUse">
<stop stop-color="#D8D8D8" stop-opacity="0.05"/>
<stop offset="1" stop-color="white" stop-opacity="0.4"/>
</linearGradient>
<clipPath id="clip0_81_241">
<rect x="11" y="17" width="62" height="62" rx="15.5" fill="white"/>
</clipPath>
</defs>
</svg>
